# xmcd
#
# Track frame offsets:
#	150
#	16514
#	29907
#	46548
#	61602
#	80473
#	95361
#	109026
#	124784
#	139619
#	154559
#	173281
#	188037
#	204014
#	217673
#	230436
#	248746
#	266426
#
# Disc length: 3773 seconds
#
# Revision: 1
# Processed by: cddbd v1.5.2PL0 Copyright (c) Steve Scherf et al.
# Submitted via: FairStars CD Ripper 1.21
#
DISCID=cb0ebb12
DTITLE=John Dean - One for the Road
DYEAR=2008
DGENRE=Country
TTITLE0=John Dean - Xanadu
TTITLE1=John Dean - La Bamba
TTITLE2=John Dean - I Saw Her Standin' There
TTITLE3=John Dean - Crystal Chandeliers
TTITLE4=John Dean - Seven Spanish Angels
TTITLE5=John Dean - Travelin' Man
TTITLE6=John Dean - The Great Pretender
TTITLE7=John Dean - Holding BackTthe Ocean
TTITLE8=John Dean - Let Your Love Flow
TTITLE9=John Dean - Shakin' All Over
TTITLE10=John Dean - Today I Started Loving You Again
TTITLE11=John Dean - Little by Little
TTITLE12=John Dean - Devil Gate Drive
TTITLE13=John Dean - I Can't Help It (If I'm Still in Love with You)
TTITLE14=John Dean - Walking Back to Happiness
TTITLE15=John Dean - Where You Gonna Go
TTITLE16=John Dean - Blue Eyes Crying in the Rain
TTITLE17=John Dean - Riders in the Sky Medley
EXTD=
EXTT0=
EXTT1=
EXTT2=
EXTT3=
EXTT4=
EXTT5=
EXTT6=
EXTT7=
EXTT8=
EXTT9=
EXTT10=
EXTT11=
EXTT12=
EXTT13=
EXTT14=
EXTT15=
EXTT16=
EXTT17=
PLAYORDER=
